<svg version="1.2" xmlns="http://www.w3.org/2000/svg" viewBox="0 0 440 444" width="440" height="444">
	<title>8111395_upload_arrow_up_cloud_arrows_icon-svg</title>
	<style>
		.s0 { fill: #000000 } 
	</style>
	<path id="Layer" fill-rule="evenodd" class="s0" d="m137.7 125.1l-21.4-21.4 103.7-103.7 103.7 103.7-21.4 21.4-67.2-67.2v316.8h-30.2v-316.8zm271.6 192.3v93q0 0.7-0.3 1.3-0.2 0.6-0.7 1.1-0.5 0.5-1.1 0.7-0.6 0.3-1.3 0.3h-372.3q-0.6 0-1.2-0.3-0.6-0.3-1-0.8-0.5-0.5-0.7-1.1-0.2-0.6-0.2-1.2v-93h-30.2v93c0 4.4 0.8 8.7 2.5 12.8 1.6 4.1 4.1 7.8 7.2 10.9 3.1 3.1 6.7 5.6 10.8 7.3 4.1 1.7 8.4 2.6 12.8 2.7h372.3c4.4 0 8.8-0.9 12.9-2.6 4.1-1.7 7.8-4.2 10.9-7.3 3.1-3.2 5.6-6.9 7.3-11 1.7-4 2.6-8.4 2.6-12.9v-93z"/>
</svg>