<svg version="1.2" xmlns="http://www.w3.org/2000/svg" viewBox="0 0 28 28" width="28" height="28">
	<title>Application Settings-svg</title>
	<style>
		.s0 { fill: #1947ba } 
	</style>
	<g id="Layer">
		<path id="Layer" fill-rule="evenodd" class="s0" d="m28 14q0 0 0 0c0 2-1.4 3.6-3.3 3.9l-0.4 0.9c0.5 0.6 0.8 1.4 0.8 2.3 0 1-0.4 2-1.2 2.8-1.4 1.4-3.6 1.5-5.1 0.4l-0.9 0.4c-0.3 1.9-1.9 3.3-3.9 3.3-2 0-3.6-1.4-3.9-3.3l-0.9-0.4c-1.5 1.1-3.8 0.9-5.1-0.4-1.4-1.4-1.5-3.6-0.4-5.1l-0.4-0.9c-1.9-0.3-3.3-1.9-3.3-3.9 0-2 1.4-3.6 3.3-3.9l0.4-0.9c-0.5-0.6-0.8-1.4-0.8-2.3 0-1 0.4-2 1.2-2.8 1.4-1.4 3.6-1.5 5.1-0.4l0.9-0.4c0.3-1.9 1.9-3.3 3.9-3.3 2 0 3.6 1.4 3.9 3.3l0.9 0.4c1.5-1.1 3.8-0.9 5.1 0.4 1.4 1.4 1.5 3.6 0.4 5.1l0.4 0.9c1.9 0.3 3.3 1.9 3.3 3.9zm-2 0c0-1.1-0.9-2-2-2-0.4 0-0.8-0.2-0.9-0.6l-0.8-2c-0.2-0.3-0.1-0.8 0.2-1.1 0.8-0.7 0.8-2 0-2.8-0.8-0.7-2.1-0.7-2.8 0-0.3 0.3-0.8 0.4-1.1 0.2l-2-0.8c-0.4-0.1-0.6-0.5-0.6-0.9 0-1.1-0.9-2-2-2-1.1 0-2 0.9-2 2 0 0.4-0.2 0.8-0.6 0.9l-2 0.8c-0.3 0.2-0.8 0.1-1.1-0.2-0.7-0.8-2-0.8-2.8 0-0.4 0.4-0.6 0.9-0.6 1.4 0 0.6 0.2 1.1 0.6 1.4 0.3 0.3 0.4 0.8 0.2 1.1l-0.8 2c-0.1 0.4-0.5 0.6-0.9 0.6-1.1 0-2 0.9-2 2 0 1.1 0.9 2 2 2 0.4 0 0.8 0.2 0.9 0.6l0.8 2c0.2 0.3 0.1 0.8-0.2 1.1-0.8 0.7-0.8 2 0 2.8 0.8 0.7 2.1 0.7 2.8 0 0.3-0.3 0.8-0.4 1.1-0.2l2 0.8c0.4 0.1 0.6 0.5 0.6 0.9 0 1.1 0.9 2 2 2 1.1 0 2-0.9 2-2 0-0.4 0.2-0.8 0.6-0.9l2-0.8c0.3-0.2 0.8-0.1 1.1 0.2 0.7 0.8 2 0.8 2.8 0 0.4-0.4 0.6-0.9 0.6-1.4 0-0.6-0.2-1.1-0.6-1.4-0.3-0.3-0.4-0.8-0.2-1.1l0.8-2c0.1-0.4 0.5-0.6 0.9-0.6 1.1 0 2-0.9 2-2z"/>
		<path id="Layer" class="s0" d="m19 14c0 1-0.3 1.9-0.8 2.7-0.3 0.5-0.9 0.6-1.4 0.3-0.5-0.3-0.6-0.9-0.3-1.4q0.5-0.7 0.5-1.6c0-1.7-1.3-3-3-3-1.7 0-3 1.3-3 3 0 1.7 1.3 3 3 3 0.6 0 1 0.4 1 1 0 0.6-0.4 1-1 1-2.8 0-5-2.2-5-5 0-2.8 2.2-5 5-5 2.8 0 5 2.2 5 5z"/>
	</g>
</svg>