<svg version="1.2" xmlns="http://www.w3.org/2000/svg" viewBox="0 0 48 48" width="48" height="48">
	<title>Definitions-svg</title>
	<style>
		.s0 { fill: #1947ba } 
		.s1 { fill: #241f20 } 
	</style>
	<g id="Layer">
		<path id="Layer" class="s0" d="m25.9 8v15.4l7.1 7-2.8 2.9-8.3-8.3v-17z"/>
		<path id="Layer" fill-rule="evenodd" class="s0" d="m3.5 31.3l-1.5-1.5 2.7-2.7 1.5 1.5q1.3-0.9 2.8-1.3v-2.2h4.8v2.2q1.6 0.4 2.9 1.3l1.5-1.4 2.7 2.7-1.5 1.4q0.8 1.3 1.2 2.8h2.3v4.8h-2.3q-0.4 1.6-1.2 2.9l1.5 1.4-2.7 2.7-1.5-1.4q-1.3 0.8-2.9 1.2v2.2h-4.8v-2.2q-1.5-0.4-2.8-1.2l-1.5 1.5-2.7-2.7 1.5-1.5q-0.9-1.3-1.3-2.9h-2.2v-4.8h2.2q0.4-1.5 1.3-2.8zm7.9 9.1c2.2 0 3.9-1.7 3.9-3.9 0-2.2-1.7-3.9-3.9-3.9-2.1 0-3.9 1.7-3.9 3.9 0 2.2 1.8 3.9 3.9 3.9z"/>
		<path id="Layer" class="s1" d="m0 23v2q0-0.5 0-1 0-0.5 0-1z"/>
		<path id="Layer" class="s0" d="m30.1 10l0.9-1 2.6-2.6c-2.9-1.5-6.1-2.4-9.6-2.4-10.7 0-19.4 8.4-19.9 18.9h-4.1c0.6-12.7 11.1-22.9 24-22.9 4.6 0 8.8 1.3 12.5 3.5l2.5-2.5 1-1v9.7l-0.2 0.3z"/>
		<path id="Layer" class="s0" d="m44 24c0-2.9-0.6-5.6-1.7-8l3-3c1.7 3.3 2.7 7 2.7 11 0 13.3-10.7 24-24 24v-4c11 0 20-9 20-20z"/>
	</g>
</svg>