<svg version="1.2" xmlns="http://www.w3.org/2000/svg" viewBox="0 0 20 20" width="20" height="20">
	<title>edit-svg</title>
	<style>
		.s0 { fill: #1947ba } 
	</style>
	<path id="Layer" class="s0" d="m17.6 9.3h1.1v7.4c0 1.5-1.2 2.7-2.7 2.7h-12.8c-1.4 0-2.6-1.2-2.6-2.7v-12.7c0-1.5 1.2-2.7 2.6-2.7h7.5v1.1h-7.5c-0.9 0-1.6 0.7-1.6 1.6v12.7c0 0.9 0.7 1.7 1.6 1.7h12.8c0.9 0 1.6-0.8 1.6-1.7 0 0 0-7.4 0-7.4z"/>
	<path id="Layer" fill-rule="evenodd" class="s0" d="m19.4 2.7c0 0.5-0.2 1.1-0.6 1.5l-7.1 7.1q-0.1 0.1-0.3 0.2l-3 0.7q-0.1 0-0.1 0-0.2 0-0.4-0.1c-0.1-0.2-0.2-0.3-0.1-0.5l0.7-3q0-0.2 0.2-0.3l7.1-7.1c0.8-0.8 2.2-0.8 3 0 0.4 0.4 0.6 0.9 0.6 1.5zm-2.5 1.9l-1.5-1.5-5.9 5.9-0.5 2 2-0.5zm1.5-1.9q0-0.5-0.4-0.8c-0.4-0.4-1.1-0.4-1.5 0l-0.3 0.4 1.5 1.5 0.3-0.4q0.4-0.3 0.4-0.7z"/>
</svg>