<svg version="1.2" xmlns="http://www.w3.org/2000/svg" viewBox="0 0 20 18" width="20" height="18">
	<title>Find Vehicles-svg</title>
	<style>
		.s0 { fill: #1947ba } 
	</style>
	<path id="Layer" fill-rule="evenodd" class="s0" d="m17.8 6.1q0.4 0.1 0.9 0.4 0.4 0.3 0.7 0.7 0.3 0.4 0.4 0.8 0.2 0.5 0.2 1v4q0 0.5-0.1 0.9-0.2 0.4-0.5 0.8-0.2 0.4-0.6 0.7-0.4 0.3-0.8 0.4v1.2q0 0.4-0.3 0.7-0.3 0.3-0.7 0.3-0.4 0-0.7-0.3-0.3-0.3-0.3-0.7v-1h-12v1q0 0.4-0.3 0.7-0.3 0.3-0.7 0.3-0.4 0-0.7-0.3-0.3-0.3-0.3-0.7v-1.2q-0.4-0.1-0.8-0.4-0.4-0.3-0.6-0.7-0.3-0.4-0.5-0.8-0.1-0.4-0.1-0.9v-4q0-0.5 0.2-1 0.1-0.4 0.4-0.8 0.3-0.4 0.7-0.7 0.5-0.3 0.9-0.4l1.4-4q0.2-0.5 0.4-0.9 0.3-0.3 0.7-0.6 0.4-0.3 0.8-0.4 0.5-0.2 0.9-0.1h7.2q0.4-0.1 0.9 0.1 0.4 0.1 0.8 0.4 0.4 0.3 0.7 0.6 0.2 0.4 0.4 0.9l1.4 4zm0.2 2.9q0-0.2-0.1-0.4-0.1-0.2-0.2-0.3-0.1-0.2-0.3-0.3-0.2 0-0.4 0h-14q-0.2 0-0.4 0-0.2 0.1-0.3 0.3-0.1 0.1-0.2 0.3-0.1 0.2-0.1 0.4v4q0 0.2 0.1 0.4 0.1 0.1 0.2 0.3 0.1 0.1 0.3 0.2 0.2 0.1 0.4 0.1h14q0.2 0 0.4-0.1 0.2-0.1 0.3-0.2 0.1-0.2 0.2-0.3 0.1-0.2 0.1-0.4zm-13.6-3h11.2l-1-3.4q-0.1-0.1-0.2-0.2-0.1-0.2-0.2-0.3-0.2-0.1-0.3-0.1-0.2 0-0.3 0h-7.2q-0.1 0-0.3 0-0.1 0.1-0.2 0.2-0.2 0-0.3 0.2-0.1 0.1-0.1 0.3zm0.5 4q0.2-0.1 0.3 0 0.1 0 0.3 0.1 0.1 0 0.2 0.1 0.1 0.1 0.1 0.2 0.1 0.1 0.1 0.2 0.1 0.1 0.1 0.2 0 0.1 0 0.2 0 0 0 0 0 0.1 0 0.1 0 0.1 0 0.1-0.1 0.1-0.1 0.1 0 0.1 0 0.1 0 0.1-0.1 0.1 0 0 0 0.1-0.1 0-0.1 0.1 0 0-0.1 0 0 0.1 0 0.1-0.1 0-0.1 0-0.1 0.1-0.1 0.1-0.3 0.1-0.6 0-0.3 0-0.5-0.3-0.2-0.2-0.3-0.5 0-0.3 0.1-0.5 0-0.1 0.1-0.2 0-0.1 0.1-0.2 0.1 0 0.1-0.1 0.1 0 0.2-0.1 0.2 0 0.3 0zm10 0q0.2-0.1 0.3 0 0.1 0 0.3 0.1 0.1 0 0.2 0.1 0.1 0.1 0.1 0.2 0.1 0.1 0.1 0.2 0.1 0.1 0.1 0.2 0 0.1 0 0.2 0 0 0 0 0 0.1 0 0.1 0 0.1 0 0.1-0.1 0.1-0.1 0.1 0 0.1-0.1 0.2 0 0.1-0.1 0.2-0.1 0-0.1 0.1-0.1 0-0.2 0.1-0.3 0.1-0.6 0-0.3 0-0.5-0.3-0.2-0.2-0.3-0.5 0-0.3 0.1-0.5 0-0.1 0.1-0.2 0-0.1 0.1-0.2 0.1 0 0.1-0.1 0.1 0 0.2-0.1 0.2 0 0.3 0zm-3.2 0.2q0.3 0.3 0.3 0.8 0 0.4-0.3 0.7-0.3 0.2-0.7 0.3h-2q-0.4-0.1-0.7-0.3-0.3-0.3-0.3-0.7 0-0.5 0.3-0.8 0.3-0.2 0.7-0.2h2q0.4 0 0.7 0.2z"/>
</svg>