<svg version="1.2" xmlns="http://www.w3.org/2000/svg" viewBox="0 0 24 26" width="24" height="26">
	<title>Logs-svg</title>
	<style>
		.s0 { fill: #1947ba } 
	</style>
	<g id="Icons">
		<path id="Layer" fill-rule="evenodd" class="s0" d="m23.9 5.5v15c0 3.1-2.5 5.5-5.5 5.5h-12.8c-3 0-5.5-2.4-5.5-5.5v-0.9h5c0.2 0.5 0.6 0.8 1.2 0.8 0.7 0 1.3-0.6 1.3-1.3 0-0.7-0.6-1.3-1.3-1.3-0.6 0-1 0.3-1.2 0.8h-5v-5.1h5c0.2 0.5 0.6 0.8 1.2 0.8 0.7 0 1.3-0.6 1.3-1.3 0-0.7-0.6-1.3-1.3-1.3-0.6 0-1 0.3-1.2 0.8h-5v-5.1h5c0.2 0.5 0.6 0.8 1.2 0.8 0.7 0 1.3-0.6 1.3-1.3 0-0.8-0.6-1.3-1.3-1.3-0.6 0-1 0.3-1.2 0.8h-5v-0.9c0-3.1 2.5-5.5 5.5-5.5h12.8c3 0 5.5 2.4 5.5 5.5zm-3.3 13.3c0.2 0 0.3-0.1 0.3-0.3v-1.1c0-0.2-0.1-0.4-0.3-0.4-0.2 0-0.4 0.2-0.4 0.4v1.1c0 0.2 0.2 0.3 0.4 0.3zm0.3-11.2c0-0.2-0.1-0.4-0.3-0.4-0.2 0-0.4 0.2-0.4 0.4v7c0 0.2 0.2 0.3 0.4 0.3 0.2 0 0.3-0.1 0.3-0.3z"/>
	</g>
</svg>