<svg version="1.2" xmlns="http://www.w3.org/2000/svg" viewBox="0 0 24 26" width="24" height="26">
	<title>Notifications-svg</title>
	<style>
		.s0 { fill: #1947ba } 
	</style>
	<g id="Layer_2">
		<path id="Layer" fill-rule="evenodd" class="s0" d="m12 26q-0.8 0-1.5-0.3-0.8-0.3-1.3-0.9-0.6-0.5-0.9-1.3-0.3-0.7-0.3-1.5 0-0.2 0.1-0.4 0.1-0.2 0.2-0.3 0.1-0.1 0.3-0.2 0.2-0.1 0.4-0.1h6q0.2 0 0.4 0.1 0.2 0.1 0.3 0.2 0.1 0.1 0.2 0.3 0.1 0.2 0.1 0.4 0 0.8-0.3 1.5-0.3 0.8-0.9 1.3-0.5 0.6-1.3 0.9-0.7 0.3-1.5 0.3zm-1.7-3q0.2 0.5 0.7 0.7 0.5 0.3 1 0.3 0.5 0 1-0.3 0.5-0.2 0.7-0.7z"/>
		<path id="Layer" class="s0" d="m14 4h-4q-0.2 0-0.4-0.1-0.2-0.1-0.3-0.2-0.1-0.1-0.2-0.3-0.1-0.2-0.1-0.4c0-0.8 0.3-1.6 0.9-2.1 0.5-0.6 1.3-0.9 2.1-0.9 0.8 0 1.6 0.3 2.1 0.9 0.6 0.5 0.9 1.3 0.9 2.1q0 0.2-0.1 0.4-0.1 0.2-0.2 0.3-0.1 0.1-0.3 0.2-0.2 0.1-0.4 0.1z"/>
		<path id="Layer" fill-rule="evenodd" class="s0" d="m23 23h-22q-0.2 0-0.4-0.1-0.2-0.1-0.3-0.2-0.1-0.1-0.2-0.3-0.1-0.2-0.1-0.4 0-0.8 0.2-1.7 0.2-0.8 0.6-1.5 0.4-0.8 0.9-1.4 0.6-0.7 1.3-1.1v-5.3c0-1.2 0.2-2.3 0.7-3.4 0.4-1.1 1.1-2.1 1.9-2.9 0.8-0.9 1.8-1.5 2.9-2 1.1-0.5 2.3-0.7 3.4-0.7h0.2c1.1 0 2.3 0.2 3.4 0.7 1.1 0.4 2.1 1.1 2.9 1.9 0.8 0.9 1.5 1.9 2 3 0.4 1 0.6 2.2 0.6 3.4l0.1 5.3q0.6 0.4 1.2 1.1 0.5 0.6 0.9 1.4 0.4 0.7 0.6 1.5 0.2 0.9 0.2 1.7 0 0.2-0.1 0.4-0.1 0.2-0.2 0.3-0.1 0.1-0.3 0.2-0.2 0.1-0.4 0.1zm-20.9-2h19.8q-0.1-0.5-0.3-1-0.2-0.5-0.5-0.9-0.4-0.5-0.7-0.8-0.4-0.4-0.9-0.6-0.1-0.1-0.2-0.2-0.1-0.1-0.2-0.2 0-0.1-0.1-0.2 0-0.2 0-0.3v-5.8c0-1.9-0.7-3.6-2.1-4.9-1.3-1.4-3-2.1-4.9-2.1-1.9 0-3.6 0.7-4.9 2.1-1.4 1.3-2.1 3-2.1 4.9v5.8q0 0.1 0 0.3-0.1 0.1-0.1 0.2-0.1 0.1-0.2 0.2-0.1 0.1-0.2 0.2-0.5 0.2-0.9 0.6-0.3 0.3-0.7 0.8-0.3 0.4-0.5 0.9-0.2 0.5-0.3 1z"/>
	</g>
</svg>