<svg version="1.2" xmlns="http://www.w3.org/2000/svg" viewBox="0 0 64 64" width="64" height="64">
	<title>Parking Requests-svg</title>
	<style>
		.s0 { fill: #1947ba } 
	</style>
	<g id="Layer">
		<g id="Layer">
			<path id="Layer" class="s0" d="m51.8 11.8c0 1.6-1.1 2.5-2.9 2.5-0.5 0-0.9 0-1.2-0.1v-4.5c0.3-0.1 0.8-0.1 1.5-0.1 1.7 0 2.6 0.8 2.6 2.2z"/>
			<path id="Layer" fill-rule="evenodd" class="s0" d="m63.9 3.8v21.4c0 1.6-1.4 2.9-3.1 2.9h-22.7c-1.7 0-3.1-1.3-3.1-2.9v-21.4c0-1.7 1.4-3 3.1-3h22.7c1.7 0 3.1 1.3 3.1 3zm-8.6 7.9c0-1.5-0.7-2.7-1.7-3.5-1-0.8-2.5-1.2-4.6-1.2-2.1 0-3.6 0.1-4.7 0.3v15h3.4v-5.4q0.5 0 1.2 0c2 0 3.8-0.5 5-1.6 0.9-0.8 1.4-2.1 1.4-3.6z"/>
		</g>
		<path id="Layer" fill-rule="evenodd" class="s0" d="m57.8 34.6v15.8c0 1.9-1.4 3.4-3 3.4h-3.1v7.7c0 0.9-0.6 1.7-1.3 1.7h-4.8c-0.8 0-1.4-0.8-1.4-1.7v-7.7h-30.5v7.6c0 1-0.6 1.7-1.3 1.7h-4.9c-0.8 0-1.4-0.7-1.4-1.7v-7.6h-3c-1.7 0-3-1.5-3-3.4v-15.8c0-1.7 1.1-3.1 2.5-3.4 2-3.5 10.9-18.9 11.6-20 0.7-1.2 1.4-1.3 1.4-1.3 0 0 12.8 0 13.8 0 1.1 0 1.6 0.6 1.7 1.6 0.1 1.7-2.4 1.5-2.4 1.5h-10.4c-1.7 0-2.1 0.7-2.1 0.7l-10.1 17.5h48.7c1.6 0 3 1.5 3 3.4zm-41.1 7.9c0-2.9-2.4-5.2-5.2-5.2-2.9 0-5.3 2.3-5.3 5.2 0 2.9 2.4 5.2 5.3 5.2 2.8 0 5.2-2.3 5.2-5.2zm35.1 0c0-2.9-2.3-5.2-5.2-5.2-2.9 0-5.3 2.3-5.3 5.2 0 2.9 2.4 5.2 5.3 5.2 2.9 0 5.2-2.3 5.2-5.2z"/>
	</g>
</svg>