<svg version="1.2" xmlns="http://www.w3.org/2000/svg" viewBox="0 0 26 28" width="26" height="28">
	<title>Policies-svg</title>
	<style>
		.s0 { fill: #1947ba } 
	</style>
	<path id="Layer" fill-rule="evenodd" class="s0" d="m25.9 14.2q-0.2 0.7-0.4 1.2-0.3 0.6-0.7 1.1-0.3 0.5-0.8 1v9.5l-4-1.9-4 1.9v-9.5c-1.5-1.4-2.2-3.4-1.9-5.4 0.3-2 1.6-3.8 3.5-4.6 1.8-0.8 4-0.7 5.7 0.5 1.7 1.1 2.7 3 2.7 5q0 0.6-0.1 1.2zm-3.9 4.4q-0.5 0.2-1 0.3-0.5 0.1-1 0.1-0.5 0-1-0.1-0.5-0.1-1-0.3v5.2l2-0.9 2 0.9zm-0.5-1.9q0.8-0.3 1.3-0.9 0.6-0.5 0.9-1.3 0.3-0.7 0.3-1.5c0-1.6-1-3.1-2.5-3.7-1.5-0.6-3.2-0.3-4.3 0.9-1.2 1.1-1.5 2.8-0.9 4.3 0.6 1.5 2.1 2.5 3.7 2.5q0.8 0 1.5-0.3z"/>
	<path id="Layer" class="s0" d="m12 0.4q1 0.3 1.8 1 0.8 0.6 1.3 1.5 0.6 0.9 0.8 1.9l-2 0.4c-0.2-1-0.7-1.8-1.5-2.4-0.8-0.6-1.8-0.9-2.8-0.8-1 0.1-1.9 0.6-2.6 1.3-0.6 0.8-1 1.7-1 2.7v6h5v2h-9v12h11v2h-11q-0.4 0-0.8-0.2-0.3-0.1-0.6-0.4-0.3-0.3-0.4-0.6-0.2-0.4-0.2-0.8v-12q0-0.4 0.2-0.8 0.1-0.3 0.4-0.6 0.3-0.3 0.6-0.4 0.4-0.2 0.8-0.2h2v-6q0-1.2 0.5-2.3 0.4-1.1 1.3-1.9 0.8-0.9 1.9-1.3 1.1-0.5 2.3-0.5 1 0 2 0.4z"/>
</svg>