<svg version="1.2" xmlns="http://www.w3.org/2000/svg" viewBox="0 0 30 28" width="30" height="28">
	<title>Real Time Monitoring-svg</title>
	<style>
		.s0 { fill: #1947ba } 
	</style>
	<g id="Layer_40">
		<path id="Layer" fill-rule="evenodd" class="s0" d="m27 22h-24q-0.6 0-1.1-0.2-0.6-0.3-1-0.7-0.4-0.4-0.7-1-0.2-0.5-0.2-1.1v-16q0-0.6 0.2-1.1 0.3-0.6 0.7-1 0.4-0.4 1-0.7 0.5-0.2 1.1-0.2h24q0.6 0 1.1 0.2 0.6 0.3 1 0.7 0.4 0.4 0.7 1 0.2 0.5 0.2 1.1v16q0 0.6-0.2 1.1-0.3 0.6-0.7 1-0.4 0.4-1 0.7-0.5 0.2-1.1 0.2zm-24-20q-0.2 0-0.4 0.1-0.2 0.1-0.3 0.2-0.1 0.1-0.2 0.3-0.1 0.2-0.1 0.4v16q0 0.2 0.1 0.4 0.1 0.2 0.2 0.3 0.1 0.1 0.3 0.2 0.2 0.1 0.4 0.1h24q0.2 0 0.4-0.1 0.2-0.1 0.3-0.2 0.1-0.1 0.2-0.3 0.1-0.2 0.1-0.4v-16q0-0.2-0.1-0.4-0.1-0.2-0.2-0.3-0.1-0.1-0.3-0.2-0.2-0.1-0.4-0.1z"/>
		<path id="Layer" fill-rule="evenodd" class="s0" d="m20 28h-10q-0.2 0-0.4-0.1-0.2-0.1-0.4-0.2-0.1-0.2-0.2-0.4 0-0.2 0-0.5l1-6q0-0.1 0.1-0.3 0.1-0.1 0.2-0.3 0.2-0.1 0.4-0.1 0.1-0.1 0.3-0.1h8q0.2 0 0.3 0.1 0.2 0 0.4 0.1 0.1 0.2 0.2 0.3 0.1 0.2 0.1 0.3l1 6q0 0.3 0 0.5-0.1 0.2-0.2 0.4-0.2 0.1-0.4 0.2-0.2 0.1-0.4 0.1zm-8.8-2h7.6l-0.7-4h-6.3z"/>
		<path id="Layer" class="s0" d="m23 28h-16q-0.4 0-0.7-0.3-0.3-0.3-0.3-0.7 0-0.4 0.3-0.7 0.3-0.3 0.7-0.3h16q0.4 0 0.7 0.3 0.3 0.3 0.3 0.7 0 0.4-0.3 0.7-0.3 0.3-0.7 0.3z"/>
		<path id="Layer" class="s0" d="m29 17h-28q-0.4 0-0.7-0.3-0.3-0.3-0.3-0.7 0-0.4 0.3-0.7 0.3-0.3 0.7-0.3h28q0.4 0 0.7 0.3 0.3 0.3 0.3 0.7 0 0.4-0.3 0.7-0.3 0.3-0.7 0.3z"/>
	</g>
</svg>