<svg version="1.2" xmlns="http://www.w3.org/2000/svg" viewBox="0 0 22 22" width="22" height="22">
	<title>Reports &amp; Dashboards-svg</title>
	<style>
		.s0 { fill: #1947ba } 
	</style>
	<g id="pie_chart_contrass">
		<path id="Layer" fill-rule="evenodd" class="s0" d="m14.6 0.9c1.4 0.6 2.8 1.5 3.9 2.6 1.1 1.1 2 2.5 2.6 3.9 0.6 1.5 0.9 3 0.9 4.6q0 0.2-0.1 0.4-0.1 0.2-0.2 0.3-0.1 0.1-0.3 0.2-0.2 0.1-0.4 0.1h-1c-0.4 3.8-3 7.1-6.6 8.4-3.6 1.3-7.7 0.3-10.4-2.4-2.7-2.7-3.7-6.8-2.4-10.4 1.3-3.6 4.6-6.2 8.4-6.6v-1q0-0.2 0.1-0.4 0.1-0.2 0.2-0.3 0.1-0.1 0.3-0.2 0.2-0.1 0.4-0.1c1.6 0 3.1 0.3 4.6 0.9zm-3.6 10.2h9q-0.2-1.8-0.9-3.4-0.8-1.5-2-2.8-1.2-1.2-2.8-1.9-1.6-0.8-3.3-0.9zm-7.8 5.1c0.8 1.3 1.9 2.3 3.3 3 1.3 0.6 2.8 0.9 4.3 0.8 1.5-0.2 2.9-0.8 4.1-1.7-6-6-5.7-5.6-5.8-5.9-0.1-0.3-0.1-0.1-0.1-8.3q-1.4 0.1-2.7 0.8-1.3 0.7-2.3 1.8-1 1.1-1.5 2.5-0.5 1.3-0.5 2.8c0 1.5 0.4 3 1.2 4.2zm13.7-0.2q0.3-0.4 0.5-0.9 0.2-0.5 0.3-1.1 0.2-0.5 0.2-1h-5.5l3.9 3.9q0.4-0.4 0.6-0.9z"/>
	</g>
</svg>