<svg version="1.2" xmlns="http://www.w3.org/2000/svg" viewBox="0 0 18 23" width="18" height="23">
	<title>Security-svg</title>
	<style>
		.s0 { fill: #1947ba } 
	</style>
	<path id="Layer" class="s0" d="m11.3 0.5q1.1 0.4 1.9 1.3 0.9 0.8 1.3 1.9 0.5 1.1 0.5 2.3v1h-2v-1c0-1.1-0.4-2.1-1.2-2.8-0.7-0.8-1.7-1.2-2.8-1.2-1.1 0-2.1 0.4-2.8 1.2-0.8 0.7-1.2 1.7-1.2 2.8v1h-2v-1q0-1.2 0.5-2.3 0.4-1.1 1.3-1.9 0.8-0.9 1.9-1.3 1.1-0.5 2.3-0.5 1.2 0 2.3 0.5z"/>
	<path id="Layer" fill-rule="evenodd" class="s0" d="m16.1 9.2q0.6 0.3 1 0.7 0.4 0.4 0.7 1 0.2 0.5 0.2 1.1v8q0 0.6-0.2 1.1-0.3 0.6-0.7 1-0.4 0.4-1 0.7-0.5 0.2-1.1 0.2h-12q-0.6 0-1.1-0.2-0.6-0.3-1-0.7-0.4-0.4-0.7-1-0.2-0.5-0.2-1.1v-8q0-0.6 0.2-1.1 0.3-0.6 0.7-1 0.4-0.4 1-0.7 0.5-0.2 1.1-0.2h12q0.6 0 1.1 0.2zm-5.2 5.3c-0.2-0.9-1-1.5-1.9-1.5-0.9 0-1.7 0.6-1.9 1.5-0.3 0.9 0.1 1.8 0.9 2.2v2.3q0 0.4 0.3 0.7 0.3 0.3 0.7 0.3 0.4 0 0.7-0.3 0.3-0.3 0.3-0.7v-2.3c0.8-0.4 1.2-1.3 0.9-2.2z"/>
</svg>